# xmcd CD database file
#
# Track frame offsets:
#	150
#	26426
#	52337
#	74947
#	98994
#	130846
#	155671
#	179720
#	198399
#	228437
#
# Disc length: 3279 seconds
#
# Revision: 0
# Processed by: cddbd v1.5.2PL0 Copyright (c) Steve Scherf et al.
# Submitted via: CDex 1.70beta2
#
DISCID=9a0ccd0a
DTITLE=Jaroslav Simicek - Cesta domu
DYEAR=2009
DGENRE=Jazz
TTITLE0=The First Ball
TTITLE1=The Town of Valasske Klobuky
TTITLE2=One for my Dad
TTITLE3=Blue Life
TTITLE4=Brain Teaser
TTITLE5=The Way Home
TTITLE6=Sirius
TTITLE7=Hucky
TTITLE8=Delta of Silence
TTITLE9=Spring Song
EXTD=YEAR: 2009
EXTT0=
EXTT1=
EXTT2=
EXTT3=
EXTT4=
EXTT5=
EXTT6=
EXTT7=
EXTT8=
EXTT9=
PLAYORDER=
